<svg version="1.0" xmlns="http://www.w3.org/2000/svg" width="150.667" height="150.667" viewBox="0 0 500 500"><path d="M202.8 64c-14.5 1.7-29.6 12.8-36.5 26.8-3.5 7-3.8 8.3-3.7 15.6.1 12.3 3.1 18.9 16.2 34.6 3.6 4.5 4.2 5.8 4.2 10s-.8 6-5.9 13.8c-7.6 11.5-9.1 14.5-9.1 17.7 0 3.7 1.6 6.2 5 8 2.5 1.3 2.9 2 2.7 5.4-.1 2.2.7 5.4 1.8 7.5 1.8 3.2 1.8 4 .6 9.3-4 17.6-3.5 25.1 2.6 42.8 6.3 18.1 12.8 27.5 19.2 27.5 1.5 0 5.2-.8 8.2-1.9 8.2-2.8 60.2-29.2 69.4-35.2 21.6-14.1 34.5-35 30.6-49.6-1-3.6-.8-4.8 1.9-11.1 3.1-7.4 4.9-16.9 5-26.3v-5.6l-3.7-.6c-8.7-1.4-15.1-10.2-26.9-36.4-9.2-20.5-12.9-26.2-22.2-33.9-16.9-13.9-39-20.8-59.4-18.4zm-1.9 4.5c-7.8 5.7-11.8 15.1-10.4 24.2 1.4 9.2 4.2 14.7 10.6 20.9 5.1 4.8 5.9 6.1 5 7.3-4.4 6-4.9 13.1-1.1 15.1 2.7 1.4 3.7 1.3 6-1 2.2-2.2 2.8-10.6.9-14.1-.9-1.8-.3-2.3 5.7-5.1 8-3.7 19.1-4.8 28.3-2.8 10.8 2.4 27.4 12.1 25.6 15-.8 1.2-3 .1-9.2-4.6-6.6-5-14.1-6.9-22.5-5.6-7.7 1.2-17 5.1-21.2 9-4.4 4.2-5.6 8.1-5.6 18.7 0 7.2-.4 10.2-1.6 12.1-2.8 4.2-.6 5 6.8 2.6 10-3.2 35.9-12.5 35.6-12.7-.8-.7-15.8 3.2-15.1 3.9.4.4-.3.5-1.7.1-2.3-.5-10.2.7-19.2 3l-2.8.7v-9.8c0-8 .4-10.5 1.9-13 4.5-7.4 15.4-12.4 27.1-12.4 8.1 0 11.8 1.3 19.7 7 6.1 4.4 7.4 4.7 9.2 2.6 3.1-3.8-5.7-11.1-19.7-16.4-5.7-2.2-8.4-2.6-17.7-2.6-10.6-.1-11.2 0-18.7 3.6l-7.6 3.6-5.5-5.1c-6.2-5.8-7.7-8.5-10.2-17.4-3.2-11.6.7-20.9 11-26.2 8.9-4.6 23.7-3 39.2 4.3 17.1 8.1 27.1 17.6 34.1 32.6 13.9 29.7 18.4 38.1 23.2 43 3.1 3.1 6.1 5.3 8.1 5.7l3.2.6-.6 10.1c-.5 9.2-1.2 12.2-4.6 21l-1.2 2.9-2.8-4.4c-5.9-9.4-16.7-16.3-29.8-19.3-16.9-3.8-27-.1-30.3 11.1-3.5 12.1-1.9 26.2 4 34.8 8.3 12.1 25.9 18.2 36.6 12.7 5.8-2.9 13.3-11.6 18.2-20.8l4.1-7.9.1 6.7c0 8-1.7 12.8-7.7 22-8.7 13.2-21.6 22.1-60.3 41.2-29.7 14.7-37 17.2-41.7 14.6-3.5-2-9.5-13.2-13.3-24.9-1.6-5.1-3-9.6-3-10 0-.3 3.3-.6 7.3-.6 6.3-.1 8.5-.7 17.7-4.7 5.8-2.5 12.8-5.3 15.5-6.2 2.8-.9 5.7-2.2 6.6-2.9 1.7-1.3 3.9-5 3.9-6.6 0-1.9-4.5-4-13.1-6.1-4.6-1.2-11-3.1-14.1-4.2-3.2-1.1-6.8-1.8-8-1.5-5.3 1.3-14.3 4.8-15.9 6.3-1.6 1.5-1.6 1.2-.2-4.5 1.5-5.8 1.4-6.2-.6-10.1-1.1-2.2-2.1-5.8-2.1-7.8 0-3.6.2-3.8 3.3-3.9 3.6-.1 10.6-3.2 12.5-5.6 1-1.1.1-1.6-5.2-2.5-3.5-.7-8.4-1.2-11-1.2-3.7 0-4.6.3-4.6 1.7s.2 1.5.9.4 2.2-1.1 9.4 0c9.5 1.4 10.1 2.7 2.3 4.9-4.6 1.3-8.1.3-9.9-2.7-.5-.7-1.2-1.1-1.8-.8-1.4.9-2.7-3.7-1.8-6.7.4-1.5 3.5-7.1 6.8-12.4 9.4-15 9.4-19.1 0-29.9-3.3-3.9-7.7-10.4-9.7-14.4-3.4-7-3.7-8.1-3.7-16.5 0-8 .4-9.7 2.9-14.6 4-7.7 8.5-13 14.8-17.4 6.2-4.2 16.1-8.5 19.7-8.6 2.4 0 2.3.1-1 2.5zm9.5 54.1c1.1 3 .6 9.3-.9 10.8-2.6 2.5-4.5.9-4.5-3.8 0-6 3.9-11 5.4-7zm17.1 33.1c-4.9 1.9-10.8 3.8-13 4.1l-4 .5 1.9-2.2c1.1-1.1 2.1-2 2.3-1.8.2.2 4.3-.6 9.1-1.9 12.6-3.3 14-2.8 3.7 1.3zm44.6 11.7c13 2.8 24.5 10.4 29.9 19.9l2.8 4.9-2.6 5.7c-3.1 7-10.1 17.9-13.3 20.8-4.5 4.1-11.7 6.6-17.3 5.9-10.1-1.2-20.3-8-25.1-16.7-5.8-10.6-4.3-31.5 2.6-38 4.4-4.1 11.6-4.9 23-2.5zm-68 48.6c2.9 1.2 7.5 2.5 10.3 3.1 9 1.8 14.6 4 14.6 5.6 0 3.6-7.7 7.9-28 15.5-7.3 2.7-17.8 3.5-20.5 1.5-1.6-1.3-1.8-2-1-4.3 1.4-4 6.5-7 13.9-8.3 3.5-.6 8-1.8 10-2.6 1.9-.8 6.1-1.6 9.3-1.6 5.4-.2 5.5-.2 1.8-.8-4.2-.7-5.1-.5-18.5 2.9-9.1 2.4-16 5.4-16 7 0 .6-.4 1-1 1s-1-2.6-1-5.9c0-5.1.4-6.3 2.9-9 1.6-1.7 4-3.1 5.3-3.1 1.2-.1 3.7-.7 5.3-1.5 4.2-1.9 6.7-1.8 12.6.5z"/><path d="M256 146c-.9.6-1 1-.3 1 .6 0 1.5-.5 1.8-1 .8-1.2.4-1.2-1.5 0zM219.8 225.7c.7.3 1.6.2 1.9-.1.4-.3-.2-.6-1.3-.5-1.1 0-1.4.3-.6.6zM95.1 323.2c-1.6 3.5-5.6 12.3-8.9 19.5-5.8 12.6-6 13.3-3.8 13.3 1.7 0 2.7-1.1 4.3-5l2.1-5h22.1l2.2 5c1.7 3.9 2.6 5 4.4 5 2.1 0 1.7-1.2-6.5-19.3-10.5-22.8-11.3-23.5-15.9-13.5zm9.8 9.3 4 9-8.6.3c-4.7.2-8.7.1-8.9-.1-.3-.2 1.5-4.7 3.8-10 2.4-5.2 4.6-9.2 5-8.9.4.4 2.5 4.7 4.7 9.7zM142 336.5c0 18.8.1 19.5 2 19.5 1.8 0 2-.7 2-6v-6h13.9l4.2 6c3.1 4.5 4.8 6 6.6 6 2.2 0 2.1-.3-2.2-6.2-2.5-3.4-4.5-6.5-4.5-6.9 0-.4.9-1.1 2.1-1.4 4.8-1.6 7.5-11.6 4.6-17.5-.6-1.4-3.2-3.5-5.7-4.8-3.6-1.8-6.1-2.2-13.7-2.2H142v19.5zm23.1-12.6c3.7 3.8 3.9 8.8.5 12.8-2.3 2.6-3.1 2.8-11 3.2l-8.6.3V321h8.1c7.6 0 8.2.2 11 2.9zM192 319c0 1.8.7 2 6.5 2h6.5v35h5v-35h6.5c5.8 0 6.5-.2 6.5-2 0-1.9-.7-2-15.5-2s-15.5.1-15.5 2zM246 336.5c0 18.8.1 19.5 2 19.5s2-.7 2-19.5-.1-19.5-2-19.5-2 .7-2 19.5zM281.2 318.5c-2.1.9-3.8 2.7-4.8 5-2.9 7 .7 11.7 11.2 14.6 3.7 1 7.7 2.5 9 3.4 3 2 3.2 6.5.3 9.1-2.8 2.5-12.1 2.6-17.2 0-4-2-5.3-1.7-4.3.9 1.4 3.7 14.6 6 20.9 3.6 4.2-1.6 6.7-5.1 6.7-9.3 0-5.2-3.1-8.1-10.6-10.2-12.5-3.5-15.5-6.4-11.7-11.5 2.8-3.7 7.9-4.6 14.5-2.7 4 1.2 5.4 1.2 6 .3 1.2-1.8-5.9-4.6-11.7-4.6-2.7 0-6.5.6-8.3 1.4zM322 319c0 1.8.7 2 7 2h7v17.5c0 16.8.1 17.5 2 17.5s2-.7 2-17.5V321h6.5c5.8 0 6.5-.2 6.5-2 0-1.9-.7-2-15.5-2s-15.5.1-15.5 2zM376 336.5c0 18.8.1 19.5 2 19.5s2-.7 2-19.5-.1-19.5-2-19.5-2 .7-2 19.5zM408 336.5c0 18.7.1 19.5 2 19.5 1.7 0 1.9-.8 2.2-8.3l.3-8.2 10.3-.3c8.2-.2 10.2-.6 10.2-1.7 0-1.2-1.9-1.5-10.5-1.5H412v-15h11.5c10.8 0 11.5-.1 11.5-2s-.7-2-13.5-2H408v19.5z"/></svg>