<?xml version="1.0" standalone="no"?>
<!DOCTYPE svg PUBLIC "-//W3C//DTD SVG 20010904//EN"
 "http://www.w3.org/TR/2001/REC-SVG-20010904/DTD/svg10.dtd">
<svg version="1.0" xmlns="http://www.w3.org/2000/svg"
 width="500.000000pt" height="500.000000pt" viewBox="0 0 500.000000 500.000000"
 preserveAspectRatio="xMidYMid meet">

<g transform="translate(0.000000,500.000000) scale(0.100000,-0.100000)"
fill="#000000" stroke="none">
<path d="M0 2500 l0 -2500 2500 0 2500 0 0 2500 0 2500 -2500 0 -2500 0 0
-2500z m2305 1836 c33 -9 107 -39 164 -67 87 -43 118 -65 186 -133 60 -59 92
-101 119 -153 48 -96 46 -107 -3 -16 -50 95 -97 150 -173 208 -169 127 -420
198 -532 151 -46 -19 -116 -84 -133 -123 -19 -46 -16 -111 8 -188 16 -53 32
-80 72 -122 73 -77 74 -78 151 -42 99 46 175 56 276 36 141 -27 290 -111 290
-163 0 -37 -37 -31 -101 16 -122 91 -270 90 -408 -3 -57 -39 -80 -90 -83 -187
-1 -68 -2 -70 -6 -20 -2 30 0 75 3 99 14 93 140 179 277 189 88 6 143 -10 221
-64 34 -24 68 -44 75 -44 23 0 12 28 -22 58 -82 72 -259 129 -367 118 -64 -6
-158 -38 -188 -64 -18 -15 -19 -21 -9 -59 9 -32 9 -51 -1 -82 -10 -35 -16 -41
-39 -41 -16 0 -33 5 -40 12 -20 20 -14 82 11 119 l24 34 -62 60 c-76 73 -105
141 -105 242 0 97 45 176 127 221 31 18 9 22 -48 8 -126 -29 -255 -131 -314
-248 -19 -39 -35 -65 -35 -59 0 19 39 91 77 144 45 61 150 136 233 165 57 20
79 22 180 18 63 -2 142 -11 175 -20z m-668 -438 c-2 -24 -4 -7 -4 37 0 44 2
63 4 43 2 -21 2 -57 0 -80z m1202 -63 c0 -5 -6 1 -14 15 -8 14 -14 30 -14 35
0 6 6 -1 14 -15 8 -14 14 -29 14 -35z m-1180 -30 c0 -5 -4 -3 -9 5 -5 8 -9 22
-9 30 0 16 17 -16 18 -35z m1210 -40 c0 -5 -6 1 -14 15 -8 14 -14 30 -14 35 0
6 6 -1 14 -15 8 -14 14 -29 14 -35z m-1185 -12 c9 -18 14 -33 12 -33 -6 0 -36
55 -36 66 0 11 5 3 24 -33z m1220 -59 c3 -8 2 -12 -4 -9 -6 3 -10 10 -10 16 0
14 7 11 14 -7z m-1163 -31 c13 -16 12 -17 -3 -4 -10 7 -18 15 -18 17 0 8 8 3
21 -13z m1205 -44 c21 -42 92 -117 125 -135 16 -8 40 -14 55 -14 l27 0 -7 -82
c-9 -110 -23 -179 -49 -236 -17 -38 -21 -67 -21 -152 -1 -102 -2 -109 -39
-183 -38 -76 -122 -174 -194 -225 -17 -12 10 19 60 70 99 100 139 165 159 258
6 32 8 72 4 95 l-8 40 -44 -85 c-52 -101 -112 -173 -165 -200 -21 -11 -42 -20
-46 -20 -4 1 9 10 29 20 71 38 146 135 198 256 l22 52 -21 40 c-65 128 -241
222 -414 222 -98 0 -145 -29 -173 -107 -7 -21 -13 -29 -14 -19 0 11 11 38 25
61 33 57 79 78 170 77 164 -3 324 -81 397 -194 17 -27 34 -48 37 -48 15 0 52
125 61 201 15 132 15 136 -22 143 -38 7 -121 90 -156 154 -13 23 -21 42 -18
42 3 0 13 -14 22 -31z m-1156 -14 c19 -19 32 -35 29 -35 -3 0 -20 16 -39 35
-19 19 -32 35 -29 35 3 0 20 -16 39 -35z m48 -70 c-3 -3 -9 2 -12 12 -6 14 -5
15 5 6 7 -7 10 -15 7 -18z m9 -52 c-3 -10 -5 -4 -5 12 0 17 2 24 5 18 2 -7 2
-21 0 -30z m-7 -36 c0 -7 -16 -39 -35 -70 -19 -31 -51 -83 -70 -114 -45 -74
-45 -104 0 -139 19 -15 50 -30 68 -34 l32 -8 -36 -1 c-44 -1 -100 34 -113 71
-12 35 2 68 81 185 35 52 63 101 63 109 0 8 2 14 5 14 3 0 5 -6 5 -13z m323
-4 c-13 -2 -32 -16 -43 -30 -11 -14 -20 -22 -20 -17 0 17 45 54 64 53 20 -2
19 -2 -1 -6z m264 -300 c-3 -10 -5 -2 -5 17 0 19 2 27 5 18 2 -10 2 -26 0 -35z
m-634 20 c-7 -2 -21 -2 -30 0 -10 3 -4 5 12 5 17 0 24 -2 18 -5z m136 -18 c1
-2 0 -9 -4 -15 -5 -8 -10 -8 -14 -2 -3 5 -28 14 -56 20 l-50 11 60 -5 c33 -3
62 -7 64 -9z m498 -142 c-3 -10 -5 -4 -5 12 0 17 2 24 5 18 2 -7 2 -21 0 -30z
m-630 -115 c-2 -13 -4 -3 -4 22 0 25 2 35 4 23 2 -13 2 -33 0 -45z m662 32
c11 -24 11 -24 -3 -6 -9 11 -16 24 -16 30 0 12 5 7 19 -24z m56 -70 c21 -22
37 -40 34 -40 -3 0 -23 18 -44 40 -21 22 -37 40 -34 40 3 0 23 -18 44 -40z
m-472 6 c35 -13 90 -29 123 -36 101 -21 134 -38 134 -70 0 -26 -18 -49 -50
-64 -8 -4 -3 2 13 14 31 25 36 65 10 78 -10 5 -52 17 -93 26 -41 9 -107 28
-146 42 -68 24 -73 25 -102 10 -17 -9 -37 -16 -44 -16 -15 1 61 38 79 39 7 1
41 -10 76 -23z m-259 -32 c-5 -30 -4 -35 7 -29 11 6 12 5 2 -6 -14 -14 -19
-154 -5 -145 4 2 6 -10 4 -29 -5 -42 7 -49 88 -48 53 0 60 -2 35 -9 -16 -5
-51 -6 -77 -3 l-47 5 26 -82 c32 -105 82 -214 117 -255 24 -28 34 -33 72 -33
24 0 67 9 96 20 28 11 54 18 56 16 2 -2 -22 -13 -53 -25 -71 -27 -134 -27
-167 -1 -35 27 -91 139 -134 265 -42 126 -55 257 -34 343 14 59 24 70 14 16z
m881 -64 c13 -6 15 -9 5 -9 -8 0 -22 4 -30 9 -18 12 -2 12 25 0z m103 -17
c-16 -2 -40 -2 -55 0 -16 2 -3 4 27 4 30 0 43 -2 28 -4z m-821 -29 c-3 -3 -12
-4 -19 -1 -8 3 -5 6 6 6 11 1 17 -2 13 -5z m412 -388 c-10 -9 -89 -46 -89 -41
0 6 72 44 84 45 5 0 7 -2 5 -4z m-1249 -693 c84 -182 87 -193 65 -193 -18 0
-27 11 -44 50 l-22 50 -110 0 -111 0 -21 -50 c-16 -39 -26 -50 -44 -50 -22 0
-22 1 13 78 20 42 56 122 81 177 62 137 62 137 85 133 15 -2 40 -46 108 -195z
m536 178 c23 -10 49 -29 58 -42 35 -51 8 -167 -43 -184 -12 -3 -21 -10 -21
-14 0 -4 20 -35 45 -69 43 -59 44 -62 22 -62 -18 0 -35 15 -66 60 l-42 60 -70
0 -69 0 0 -60 c0 -53 -2 -60 -20 -60 -19 0 -20 7 -20 195 l0 195 93 0 c68 0
103 -5 133 -19z m584 -1 c0 -18 -7 -20 -65 -20 l-65 0 0 -175 0 -175 -25 0
-25 0 0 175 0 175 -65 0 c-58 0 -65 2 -65 20 0 19 7 20 155 20 148 0 155 -1
155 -20z m270 -175 c0 -188 -1 -195 -20 -195 -19 0 -20 7 -20 195 0 188 1 195
20 195 19 0 20 -7 20 -195z m485 181 c25 -11 33 -19 29 -30 -7 -19 -8 -19 -63
0 -72 25 -145 3 -151 -46 -7 -51 10 -64 124 -95 74 -21 106 -51 106 -103 0
-42 -25 -77 -67 -93 -63 -24 -195 -1 -209 36 -10 26 3 29 43 9 52 -25 144 -25
172 0 28 26 27 71 -1 90 -13 8 -55 24 -93 35 -76 22 -111 47 -121 86 -9 36 14
84 50 106 38 23 131 25 181 5z m550 -6 c0 -12 -15 -16 -67 -18 l-68 -3 0 -174
c0 -168 -1 -175 -20 -175 -19 0 -20 7 -20 175 l0 175 -70 0 c-64 0 -70 2 -70
20 0 20 5 20 158 18 132 -3 157 -5 157 -18z m265 -175 c0 -188 -1 -195 -20
-195 -19 0 -20 7 -20 195 0 188 1 195 20 195 19 0 20 -7 20 -195z m550 175 c0
-19 -7 -20 -110 -20 l-110 0 0 -75 0 -75 101 0 c90 0 100 -2 97 -17 -3 -15
-17 -18 -101 -21 l-97 -3 0 -79 c0 -79 0 -80 -25 -80 l-25 0 0 195 0 195 135
0 c128 0 135 -1 135 -20z"/>
<path d="M2066 3771 c-23 -25 -32 -87 -16 -106 19 -23 49 -18 55 8 9 35 2 110
-11 114 -6 2 -18 -5 -28 -16z"/>
<path d="M953 1682 c-24 -52 -41 -97 -39 -99 2 -2 42 -3 89 -1 l86 3 -40 90
c-23 50 -44 93 -47 97 -4 3 -26 -37 -49 -90z"/>
<path d="M1460 1694 l0 -96 86 3 c79 4 87 6 110 32 34 40 32 90 -5 128 -28 27
-34 29 -110 29 l-81 0 0 -96z"/>
</g>
</svg>
